<?xml version="1.0" standalone="no"?>
<!DOCTYPE svg PUBLIC "-//W3C//DTD SVG 20010904//EN"
 "http://www.w3.org/TR/2001/REC-SVG-20010904/DTD/svg10.dtd">
<svg version="1.0" xmlns="http://www.w3.org/2000/svg"
 width="538.000000pt" height="538.000000pt" viewBox="0 0 538.000000 538.000000"
 preserveAspectRatio="xMidYMid meet">
<metadata>
Created by potrace 1.11, written by Peter Selinger 2001-2013
</metadata>
<g transform="translate(0.000000,538.000000) scale(0.100000,-0.100000)"
fill="#000000" stroke="none">
<path d="M2558 5325 c-3 -3 -14 -7 -24 -9 -11 -2 -57 -14 -104 -26 -47 -12
-110 -24 -140 -26 -57 -4 -181 -20 -239 -30 -78 -13 -189 -58 -246 -98 -72
-52 -129 -114 -194 -210 -68 -99 -98 -126 -136 -120 -16 3 -39 6 -50 8 -22 4
-55 -10 -68 -28 -5 -6 -6 20 -2 58 l5 69 -31 -7 c-48 -9 -186 -83 -269 -142
-173 -124 -292 -279 -363 -469 -14 -38 -29 -81 -31 -95 -3 -14 -10 -45 -16
-70 -6 -25 -13 -61 -16 -80 -2 -19 -6 -42 -9 -50 -3 -8 -7 -31 -9 -50 -3 -19
-8 -52 -11 -73 -6 -48 -22 -77 -40 -77 -23 0 -55 -32 -55 -55 -1 -23 -33 54
-44 106 -5 19 -12 52 -17 74 -5 22 -12 54 -15 70 -10 50 -23 68 -39 55 -25
-20 -183 -351 -220 -460 -36 -103 -41 -120 -51 -170 -3 -14 -10 -45 -16 -70
-20 -89 -22 -107 -21 -235 0 -154 19 -246 88 -422 25 -63 45 -118 45 -121 0
-4 -21 16 -45 43 l-45 50 -23 -27 -23 -28 -33 31 c-22 19 -36 27 -41 20 -10
-17 0 -333 13 -396 3 -11 8 -45 12 -75 20 -149 66 -308 128 -440 16 -36 34
-66 39 -68 4 -2 8 -8 8 -14 0 -36 176 -230 282 -310 43 -32 46 -37 33 -54 -20
-27 -18 -58 4 -86 11 -12 60 -77 110 -144 88 -119 289 -332 366 -389 22 -17
42 -33 45 -36 10 -13 148 -98 205 -126 64 -32 175 -68 275 -89 18 -4 150 -15
200 -18 33 -1 35 -3 36 -35 1 -45 36 -75 79 -67 31 6 60 37 60 65 0 10 9 16
25 17 29 0 179 -49 297 -99 l82 -34 -37 -21 c-82 -45 -254 -69 -384 -52 -64 9
-74 -1 -45 -46 35 -54 88 -77 171 -77 68 1 104 10 191 49 22 10 42 18 45 19 3
1 43 13 90 28 125 39 186 46 375 42 161 -3 186 -5 245 -20 14 -4 36 -9 50 -12
14 -3 82 -28 152 -55 181 -70 274 -71 345 -3 57 55 50 94 -14 76 -46 -12 -214
-4 -278 13 -33 9 -68 19 -77 21 -9 2 -28 11 -43 21 l-26 17 118 49 c65 27 155
59 201 72 l82 24 0 -28 c0 -15 9 -35 20 -45 55 -50 130 -12 121 61 -2 18 4 21
41 22 60 3 171 12 194 16 151 31 306 92 399 158 53 39 163 124 176 137 9 9 41
39 71 68 45 42 186 197 216 238 4 6 31 41 60 79 68 91 68 98 -5 80 -79 -18
-79 -18 -42 20 25 28 36 33 50 25 29 -15 68 -10 90 12 17 17 20 29 15 59 -5
35 -3 40 32 66 88 67 252 249 252 279 0 8 4 15 9 17 32 12 138 300 156 423 4
22 8 47 10 55 5 16 12 61 20 125 4 37 12 157 19 296 1 31 -1 67 -6 79 l-9 23
-33 -32 -33 -32 -22 28 -22 28 -44 -48 c-25 -26 -46 -47 -49 -47 -2 0 16 51
41 113 44 110 67 182 77 242 3 17 8 46 11 65 8 42 8 235 1 270 -9 43 -15 74
-21 106 -18 113 -99 332 -185 504 -74 147 -92 179 -107 184 -11 5 -28 -32 -37
-84 -7 -43 -27 -123 -43 -174 l-16 -49 -13 32 c-9 23 -22 33 -44 37 -17 4 -35
15 -41 25 -5 11 -8 19 -5 19 2 0 0 18 -5 40 -5 22 -12 57 -15 78 -6 36 -29
158 -38 197 -65 289 -271 540 -561 685 -120 60 -144 63 -136 17 1 -4 4 -38 7
-75 3 -37 7 -69 7 -72 2 -6 -8 -10 -24 -10 -7 0 -9 11 -6 27 4 20 -2 34 -23
55 -28 27 -29 27 -74 14 l-46 -14 -34 41 c-18 23 -51 69 -73 102 -103 154
-242 253 -393 282 -14 2 -43 8 -65 13 -22 5 -74 12 -115 15 -41 4 -94 8 -117
10 -23 2 -62 10 -85 16 -24 7 -47 13 -53 15 -5 1 -36 9 -67 17 -32 8 -60 12
-63 8 -6 -11 75 -168 124 -239 l40 -59 -62 -46 c-88 -65 -237 -219 -237 -246
0 -7 44 -11 138 -12 75 0 148 -2 162 -4 53 -8 298 -7 350 0 71 11 121 10 195
-3 54 -10 85 -14 215 -28 56 -5 102 -14 149 -26 37 -10 41 -13 27 -23 -25 -19
-20 -70 9 -94 44 -34 115 -5 115 46 0 44 31 22 45 -32 5 -16 9 -34 11 -40 26
-99 128 -341 154 -365 3 -3 17 -21 30 -40 13 -19 105 -116 205 -215 99 -99
187 -192 194 -207 12 -23 12 -29 -3 -43 -17 -17 -17 -49 -1 -75 15 -24 59 -39
78 -28 14 8 20 2 34 -29 18 -42 19 -52 5 -138 -10 -64 -9 -186 2 -226 5 -17
-8 -7 -46 35 -29 33 -74 83 -100 110 l-46 51 -22 -28 -22 -27 -35 30 c-19 17
-37 29 -40 26 -15 -15 3 -382 22 -456 2 -8 7 -35 10 -60 3 -25 8 -53 11 -62 5
-16 10 -37 19 -84 12 -54 59 -182 95 -259 43 -90 112 -189 170 -242 l35 -31
-18 -34 c-10 -18 -27 -47 -38 -65 -11 -18 -33 -67 -48 -110 -32 -90 -31 -86
-32 -115 -1 -20 -34 68 -42 112 -2 8 -8 24 -14 35 -6 11 -16 37 -23 58 -11 36
-13 37 -30 22 -11 -10 -22 -30 -25 -45 -6 -26 -8 -28 -38 -19 -17 5 -34 5 -38
1 -14 -14 -176 -435 -238 -617 -41 -122 -55 -190 -53 -257 1 -37 0 -37 -66
-59 -188 -62 -315 -151 -437 -304 -63 -80 -166 -179 -215 -206 -32 -19 -55
-25 -80 -22 l-35 4 95 97 c53 53 121 130 152 170 50 64 56 76 45 93 -6 10 -16
19 -21 19 -5 0 -6 13 -3 29 6 29 -11 48 -29 32 -5 -4 -40 -20 -79 -36 -38 -15
-83 -34 -100 -41 -16 -7 -57 -22 -90 -33 -33 -12 -69 -25 -80 -30 -39 -18
-176 -59 -186 -57 -3 0 -13 -5 -22 -13 -10 -7 -17 -11 -17 -8 0 3 -25 -3 -55
-13 -30 -10 -55 -17 -55 -15 0 6 -119 -43 -173 -71 l-49 -25 -61 30 c-79 38
-133 61 -144 61 -48 0 -647 214 -677 241 -6 5 -21 9 -34 9 -21 0 -24 -4 -19
-26 3 -18 -2 -33 -14 -45 -11 -11 -19 -22 -19 -27 1 -14 122 -159 207 -245 47
-48 82 -87 77 -86 -5 2 -23 -1 -40 -5 -25 -6 -39 -2 -68 18 -67 45 -95 74
-218 217 -74 87 -80 93 -139 141 -64 52 -184 114 -284 147 l-70 24 2 60 c1 33
-2 70 -7 82 -5 12 -11 35 -13 51 -7 38 -152 444 -186 519 -5 11 -25 61 -45
110 -36 92 -39 95 -90 84 -14 -3 -22 4 -29 26 -20 62 -29 61 -59 -5 -16 -34
-30 -69 -31 -78 -14 -74 -41 -131 -44 -94 -5 56 -44 171 -74 214 -11 14 -19
29 -19 33 0 4 -9 19 -20 35 l-19 27 48 49 c129 131 234 361 276 599 2 17 7 41
10 54 2 13 7 49 10 80 4 31 8 67 11 81 9 53 14 312 6 327 -7 12 -14 10 -42
-15 l-32 -30 -22 25 -22 26 -35 -35 c-19 -19 -52 -56 -74 -82 -22 -27 -50 -60
-63 -75 l-23 -26 7 45 c10 66 7 184 -7 244 -14 66 -1 103 32 86 11 -6 30 -8
42 -4 61 18 77 77 31 113 l-27 21 27 40 c45 69 62 86 253 271 110 107 155 157
187 209 15 25 31 52 36 60 31 49 89 201 138 365 11 37 52 49 52 16 0 -30 54
-61 88 -52 39 11 60 52 45 91 -9 24 -9 30 3 31 8 1 17 2 22 3 17 4 109 19 137
21 17 2 55 6 85 9 30 3 64 8 75 10 11 2 43 7 70 10 63 9 232 64 250 83 8 7 18
13 23 13 17 0 125 85 185 145 99 100 244 342 220 366 -5 5 -12 7 -15 4z
m-1198 -599 c0 -3 -4 -8 -10 -11 -5 -3 -10 -1 -10 4 0 6 5 11 10 11 6 0 10 -2
10 -4z m3487 -1052 c-10 -33 -12 -34 -19 -14 -5 14 -4 28 3 36 20 25 27 15 16
-22z m-4298 2 c8 -9 8 -16 2 -20 -6 -4 -15 3 -21 14 -12 23 2 27 19 6z m141
-2492 c0 -2 -12 -1 -27 1 -16 2 -34 4 -42 4 -11 1 -10 5 3 20 17 19 18 19 42
-2 13 -11 24 -22 24 -23z m2624 -699 c-4 -8 -13 -15 -22 -15 -13 0 -12 3 4 15
24 18 25 18 18 0z m-1224 -10 c11 -13 10 -14 -4 -9 -9 3 -16 10 -16 15 0 13 6
11 20 -6z"/>
<path d="M1272 4201 l-29 -13 1 -1372 c1 -1144 4 -1378 16 -1414 15 -47 83
-132 106 -132 8 0 14 -4 14 -9 0 -15 97 -33 199 -37 209 -8 370 -18 461 -29
25 -3 68 -7 95 -10 28 -2 61 -6 75 -9 14 -2 46 -7 71 -10 79 -11 93 -15 159
-42 82 -33 164 -87 198 -130 37 -47 60 -43 118 19 63 67 115 102 207 137 71
28 100 34 207 46 25 2 63 7 85 10 22 2 65 7 95 10 30 3 74 7 97 9 23 2 97 7
165 10 68 3 164 8 215 10 174 9 266 70 300 198 4 12 7 640 8 1395 l2 1372 -21
1 c-11 1 -650 2 -1418 3 -1158 1 -1402 -1 -1426 -13z"/>
</g>
</svg>
